#!OML:ASF X:\für Bonn\!DataBase\2005_08_12_Daniel\c3d\Daniel.ASF
:FULLY-SPECIFIED
:DEGREES
167
root 0.170982 10.4987 -3.30398 160.621 -12.4967 -182.202
lowerback 77.8965 -10.0352 22.3134
upperback 10.4166 -4.05435 -0.21316
thorax -7.31933 -5.62085 -6.05083
lowerneck 8.98107 -7.95948 -7.46952
upperneck 8.54666 -12.176 4.21168
head 1.99147 -6.43605 2.68984
rclavicle 7.4743e-014 -8.74653e-015
rhumerus 15.0419 -21.6714 -70.6409
rradius 13.104
rwrist 33.366
rhand -34.3711 11.1068
rfingers 7.12502
rthumb -7.53774 -18.7389
lclavicle 7.4743e-014 -8.74653e-015
lhumerus -29.2248 -20.154 95.4216
lradius 104.185
lwrist -5.07465
lhand -31.2379 -4.28402
lfingers 7.12502
lthumb -4.51286 25.6479
rfemur -54.6704 -33.8673 -4.76293
rtibia 129.821
rfoot -16.8219 34.7973
rtoes -3.54415
lfemur -60.7097 20.6321 -21.4886
ltibia 128.393
lfoot -34.4828 -19.8279
ltoes 2.29806
168
root 0.160316 10.6112 -3.31353 160.998 -12.4841 -182.173
lowerback 77.5779 -9.84702 22.0878
upperback 10.4281 -4.0337 -0.228788
thorax -7.38522 -5.58452 -6.02355
lowerneck 9.02494 -7.88593 -7.486
upperneck 8.45071 -12.0723 4.29056
head 1.95182 -6.38272 2.72509
rclavicle -1.59028e-014 2.46493e-014
rhumerus 14.8893 -20.9191 -70.6532
rradius 13.2274
rwrist 31.9907
rhand -34.7186 11.687
rfingers 7.12502
rthumb -7.87315 -18.1464
lclavicle -1.59028e-014 2.46493e-014
lhumerus -28.8526 -20.0255 95.4153
lradius 103.304
lwrist -5.08986
lhand -31.0392 -4.1734
lfingers 7.12502
lthumb -4.32103 25.7625
rfemur -54.7324 -32.3947 -3.7273
rtibia 128.903
rfoot -16.6585 33.7157
rtoes -3.65111
lfemur -60.2574 19.7723 -21.7158
ltibia 127.428
lfoot -34.5272 -19.4447
ltoes 2.23175
169
root 0.149509 10.7261 -3.3241 161.385 -12.4764 -182.123
lowerback 77.2151 -9.63368 21.8571
upperback 10.4576 -4.00007 -0.218362
thorax -7.43109 -5.54453 -5.97297
lowerneck 9.01098 -7.81963 -7.46793
upperneck 8.39058 -11.9719 4.32707
head 1.92855 -6.33008 2.7362
rclavicle 1.11319e-013 7.95139e-016
rhumerus 14.6425 -19.8138 -70.5065
rradius 13.4509
rwrist 30.3455
rhand -35.0458 12.1627
rfingers 7.12502
rthumb -8.18897 -17.6586
lclavicle 1.11319e-013 7.95139e-016
lhumerus -28.4155 -19.8806 95.4317
lradius 102.363
lwrist -5.1147
lhand -30.7973 -4.10189
lfingers 7.12502
lthumb -4.08738 25.8386
rfemur -54.7085 -30.9667 -2.75125
rtibia 127.946
rfoot -16.4627 32.6917
rtoes -3.69804
lfemur -59.7982 18.9369 -21.9128
ltibia 126.435
lfoot -34.5213 -19.0794
ltoes 2.28911
170
root 0.138184 10.844 -3.33508 161.778 -12.483 -182.088
lowerback 76.8438 -9.43041 21.6241
upperback 10.478 -3.96919 -0.224767
thorax -7.48953 -5.50115 -5.9395
lowerneck 9.03515 -7.76345 -7.41244
upperneck 8.29973 -11.8816 4.35027
head 1.8857 -6.28136 2.73897
rclavicle -1.90833e-014 3.18055e-015
rhumerus 14.4242 -19.0343 -70.5013
rradius 13.64
rwrist 29.0312
rhand -35.2597 12.7482
rfingers 7.12502
rthumb -8.39541 -17.065
lclavicle -1.90833e-014 3.18055e-015
lhumerus -28.0245 -19.738 95.4606
lradius 101.405
lwrist -5.23524
lhand -30.5749 -4.00337
lfingers 7.12502
lthumb -3.87261 25.9412
rfemur -54.6259 -29.6248 -1.85803
rtibia 126.966
rfoot -16.3363 31.6835
rtoes -3.77921
lfemur -59.3072 18.1084 -22.1167
ltibia 125.407
lfoot -34.5783 -18.7223
ltoes 2.30599
171
root 0.125842 10.9636 -3.34688 162.216 -12.4675 -182.043
lowerback 76.4104 -9.21766 21.3989
upperback 10.5164 -3.93253 -0.251956
thorax -7.53307 -5.44752 -5.94094
lowerneck 9.03769 -7.71433 -7.28982
upperneck 8.20863 -11.791 4.36327
head 1.84122 -6.22973 2.7255
rclavicle 3.18055e-014 -2.54444e-014
rhumerus 14.1921 -18.3087 -70.5561
rradius 13.8634
rwrist 27.7917
rhand -35.338 13.2177
rfingers 7.12502
rthumb -8.47097 -16.5924
lclavicle 3.18055e-014 -2.54444e-014
lhumerus -27.5782 -19.6165 95.4499
lradius 100.418
lwrist -5.32514
lhand -30.3122 -3.85291
lfingers 7.12502
lthumb -3.61897 26.0961
rfemur -54.5706 -28.3085 -0.982863
rtibia 125.966
rfoot -16.1923 30.7233
rtoes -3.88078
lfemur -58.8489 17.3202 -22.3207
ltibia 124.359
lfoot -34.6485 -18.3306
ltoes 2.28817
172
root 0.11292 11.0841 -3.35953 162.628 -12.462 -181.997
lowerback 75.9861 -8.98941 21.1466
upperback 10.5489 -3.89486 -0.245397
thorax -7.58138 -5.40109 -5.89147
lowerneck 9.09031 -7.65425 -7.23578
upperneck 8.09424 -11.6958 4.37596
head 1.78497 -6.17912 2.72694
rclavicle 7.95139e-015 1.19271e-014
rhumerus 13.985 -17.5898 -70.5989
rradius 14.0348
rwrist 26.7075
rhand -35.2834 13.616
rfingers 7.12502
rthumb -8.4183 -16.1962
lclavicle 7.95139e-015 1.19271e-014
lhumerus -27.1273 -19.4691 95.487
lradius 99.3782
lwrist -5.40536
lhand -30.1091 -3.72235
lfingers 7.12502
lthumb -3.42282 26.2299
rfemur -54.403 -27.0695 -0.190758
rtibia 124.939
rfoot -16.093 29.7855
rtoes -3.89398
lfemur -58.3483 16.563 -22.4992
ltibia 123.306
lfoot -34.7522 -17.9569
ltoes 2.232
173
root 0.100167 11.2061 -3.37262 163.055 -12.468 -181.945
lowerback 75.5258 -8.76886 20.9069
upperback 10.5889 -3.85711 -0.251656
thorax -7.62202 -5.34934 -5.86374
lowerneck 9.11036 -7.60096 -7.08836
upperneck 7.99352 -11.597 4.34267
head 1.7292 -6.12378 2.69476
rclavicle 8.42847e-014 9.30312e-014
rhumerus 13.6972 -16.6016 -70.5446
rradius 14.2785
rwrist 25.3429
rhand -34.9987 13.8882
rfingers 7.12502
rthumb -8.1435 -15.9348
lclavicle 8.42847e-014 9.30312e-014
lhumerus -26.6828 -19.3224 95.522
lradius 98.3196
lwrist -5.55123
lhand -29.8297 -3.58354
lfingers 7.12502
lthumb -3.15299 26.3729
rfemur -54.2043 -25.9069 0.550728
rtibia 123.882
rfoot -15.9769 28.921
rtoes -3.91918
lfemur -57.8589 15.7986 -22.6615
ltibia 122.224
lfoot -34.8314 -17.6308
ltoes 2.27348
174
root 0.0864168 11.329 -3.38735 163.487 -12.4797 -181.881
lowerback 75.0116 -8.55408 20.6812
upperback 10.6466 -3.82575 -0.256492
thorax -7.64386 -5.29789 -5.84017
lowerneck 9.16651 -7.55174 -6.9719
upperneck 7.84686 -11.5061 4.33973
head 1.65719 -6.07256 2.68088
rclavicle -2.70347e-014 -4.45278e-014
rhumerus 13.3839 -15.6175 -70.4989
rradius 14.5495
rwrist 24.0465
rhand -34.4949 13.9535
rfingers 7.12502
rthumb -7.65723 -15.8879
lclavicle -2.70347e-014 -4.45278e-014
lhumerus -26.2012 -19.1724 95.572
lradius 97.201
lwrist -5.70845
lhand -29.5926 -3.47026
lfingers 7.12502
lthumb -2.92398 26.4894
rfemur -53.9806 -24.8596 1.24216
rtibia 122.824
rfoot -15.8965 28.0871
rtoes -4.04808
lfemur -57.3523 15.0725 -22.808
ltibia 121.133
lfoot -34.9398 -17.2855
ltoes 2.26018
